<?xml version="1.0" standalone="no"?>
<!DOCTYPE svg PUBLIC "-//W3C//DTD SVG 20010904//EN"
 "http://www.w3.org/TR/2001/REC-SVG-20010904/DTD/svg10.dtd">
<svg version="1.0" xmlns="http://www.w3.org/2000/svg"
 width="591.000000pt" height="142.000000pt" viewBox="0 0 591.000000 142.000000"
 preserveAspectRatio="xMidYMid meet">

<g transform="translate(0.000000,142.000000) scale(0.100000,-0.100000)"
fill="#000000" stroke="none">
<path d="M1007 960 c38 -15 45 -71 41 -339 -2 -135 -7 -253 -12 -262 -4 -9
-17 -21 -29 -27 -16 -8 45 -11 229 -11 l250 -1 22 68 c29 90 28 93 -13 45 -19
-23 -58 -53 -87 -67 -46 -23 -64 -26 -160 -26 l-108 0 0 290 0 291 25 24 24
25 -102 -1 c-70 0 -95 -3 -80 -9z"/>
<path d="M3735 891 c-16 -18 -46 -37 -67 -43 -46 -13 -50 -28 -8 -28 l30 0 0
-221 0 -221 30 -30 c27 -26 36 -30 67 -25 22 4 50 19 70 38 36 36 38 54 1 20
-12 -12 -32 -20 -43 -19 -38 6 -45 42 -45 256 l0 202 60 0 c33 0 60 4 60 10 0
6 -26 10 -59 10 l-60 0 -3 41 -3 41 -30 -31z"/>
<path d="M4122 900 c-13 -21 -82 -60 -107 -60 -8 0 -15 -4 -15 -10 0 -5 13
-10 29 -10 l30 0 3 -218 c3 -188 5 -222 21 -245 31 -48 90 -48 146 -1 38 31
42 54 5 25 -32 -25 -47 -26 -68 -5 -14 13 -16 48 -16 230 l0 214 54 0 c30 0
58 5 61 10 4 6 -17 10 -54 10 l-61 0 0 40 c0 44 -9 50 -28 20z"/>
<path d="M2529 820 c-20 -11 -48 -33 -62 -50 -14 -16 -28 -30 -31 -30 -3 0 -6
20 -6 45 0 25 -3 45 -6 45 -3 0 -19 -9 -35 -20 -15 -12 -48 -24 -71 -29 -35
-6 -39 -9 -22 -14 37 -13 44 -49 44 -217 0 -170 -7 -205 -42 -220 -16 -6 11
-9 87 -9 76 0 103 3 87 9 -35 15 -42 50 -42 217 l0 156 44 43 c35 35 50 44 78
44 57 0 82 -44 108 -185 17 -100 39 -185 57 -223 27 -57 95 -78 143 -45 l25
18 -29 5 c-54 9 -62 29 -122 300 -22 102 -47 148 -89 166 -45 19 -72 17 -116
-6z"/>
<path d="M3180 825 c-57 -18 -124 -74 -153 -129 -17 -32 -22 -58 -22 -116 0
-90 22 -139 87 -194 42 -37 118 -66 169 -66 41 0 119 28 157 57 36 27 76 84
87 123 3 14 -7 2 -23 -25 -117 -198 -365 -123 -406 123 l-5 32 200 0 201 0 -7
37 c-10 52 -28 85 -69 121 -58 51 -130 63 -216 37z m107 -26 c46 -22 93 -87
93 -127 0 -22 -3 -22 -150 -22 l-150 0 0 23 c0 40 43 108 80 128 45 24 74 24
127 -2z"/>
<path d="M4579 831 c-45 -15 -73 -33 -116 -74 -55 -53 -77 -117 -71 -201 6
-70 24 -110 69 -155 54 -54 105 -75 184 -76 60 0 78 4 125 31 52 29 120 107
120 138 0 6 -8 -2 -19 -19 -43 -70 -117 -115 -188 -115 -101 0 -197 100 -218
228 l-7 42 202 0 202 0 -7 33 c-9 38 -31 85 -54 111 -41 47 -159 77 -222 57z
m78 -22 c38 -14 71 -46 94 -91 35 -69 37 -68 -135 -68 l-154 0 10 42 c21 96
103 148 185 117z"/>
<path d="M1740 804 c-24 -13 -56 -24 -70 -25 -25 0 -25 0 -2 -9 35 -15 42 -50
42 -211 0 -160 10 -208 48 -228 46 -25 118 -6 207 54 l65 43 0 -38 c0 -54 20
-70 86 -70 l55 0 -28 24 -28 24 -3 229 -4 229 -46 -23 c-25 -13 -57 -23 -71
-24 -25 0 -25 -1 -4 -9 31 -13 43 -67 43 -199 0 -126 5 -116 -79 -172 -56 -37
-112 -40 -135 -7 -13 19 -16 58 -16 230 0 115 -3 207 -7 207 -5 -1 -28 -12
-53 -25z"/>
</g>
</svg>
